<?xml version="1.0" encoding="UTF-8"?>
<svg xmlns="http://www.w3.org/2000/svg" xmlns:xlink="http://www.w3.org/1999/xlink" width="457px" height="139px" viewBox="0 0 457 139" version="1.1">
<g id="surface1">
<path style=" stroke:none;fill-rule:nonzero;fill:rgb(43.921569%,16.862746%,56.862748%);fill-opacity:1;" d="M 108.582031 14.84375 C 95.460938 14.757812 78.332031 21.757812 64.589844 42.144531 C 55.078125 54.835938 40.0625 98.753906 82.148438 119.804688 C 119.988281 136.371094 153.820312 103.632812 153.820312 103.632812 L 139.980469 85.949219 C 139.980469 85.949219 122.796875 101.945312 105.152344 101.945312 C 84.3125 101.945312 78.402344 87.082031 77.382812 84.101562 C 71.386719 66.609375 87.222656 46.023438 97.753906 40.445312 C 102.050781 38.164062 108.125 35.878906 112.722656 38.328125 C 112.878906 38.410156 114.699219 39.492188 111.832031 44.667969 C 109.996094 47.984375 100.613281 60.605469 84.621094 63.167969 C 79.308594 74.535156 81.898438 82.171875 84.050781 85.835938 C 95.539062 84.996094 106.410156 80.597656 116.425781 72.730469 L 116.65625 72.542969 C 125.472656 65.191406 139.585938 50.324219 135.003906 33.316406 C 132.449219 23.824219 124.574219 17.089844 113.933594 15.296875 C 112.246094 15.015625 110.453125 14.859375 108.582031 14.84375 Z M 238.90625 30.054688 C 235.589844 30.082031 231.09375 31.199219 226.953125 35.816406 C 226.953125 35.816406 219.773438 43.558594 222.730469 53.382812 C 225.976562 64.148438 235.699219 66.703125 244.847656 65.925781 C 254.035156 65.144531 262.234375 59.085938 267.746094 54.347656 L 274.871094 64.992188 L 284.398438 64.992188 L 273.402344 48.792969 C 278.296875 43.132812 282.03125 37.0625 283.941406 31.6875 L 284.015625 31.480469 L 274.902344 31.480469 L 274.859375 31.570312 C 273.28125 34.777344 271.03125 38.222656 268.347656 41.542969 L 261.335938 31.480469 L 251.808594 31.480469 L 263.003906 47.542969 C 260.015625 50.199219 251.421875 56.886719 244.015625 58.167969 C 238.5 59.128906 234.101562 57.128906 231.578125 53.921875 C 230.625 52.710938 230.03125 51.242188 230.019531 49.699219 C 229.988281 45.757812 232.808594 42.164062 233.339844 41.5 C 235.191406 39.460938 237.148438 38.464844 238.875 38.140625 C 240.015625 37.929688 241.050781 37.988281 241.882812 38.273438 C 242.949219 38.628906 245.148438 39.414062 241.945312 42.480469 C 238.914062 44.875 236.710938 45 234.460938 45.226562 C 231.324219 50.25 233.785156 52.738281 235.261719 53.039062 C 240.675781 53.628906 245.417969 50.894531 247.96875 48.527344 C 249.902344 46.738281 252.886719 42.984375 251.210938 37.941406 C 250.085938 34.558594 247.113281 31.835938 243.265625 30.660156 C 242.457031 30.414062 240.894531 30.039062 238.90625 30.054688 Z M 300.242188 30.605469 C 293.117188 30.734375 287.78125 35.195312 287.78125 35.195312 L 287.773438 78.261719 L 296.367188 78.261719 L 296.367188 39.054688 C 297.769531 38.558594 299.21875 38.253906 300.570312 38.253906 C 307.371094 38.253906 310.171875 43.691406 310.171875 48.835938 C 310.171875 55.195312 304.566406 58.671875 299.351562 57.542969 L 299.339844 65.792969 C 316.976562 66.921875 319.054688 52.40625 319.070312 48.144531 C 319.257812 38.566406 312.765625 31.054688 301.691406 30.640625 C 301.199219 30.609375 300.71875 30.597656 300.242188 30.605469 Z M 363.707031 30.632812 C 360.242188 30.554688 355.15625 31.578125 350.875 36.328125 C 345.132812 43.160156 344.207031 52.355469 349 58.910156 C 357.097656 70.035156 370.832031 65.480469 375.804688 62.117188 L 370.960938 55.152344 C 367.949219 57.375 361.214844 59.804688 356.800781 56.308594 C 355.09375 54.957031 354.054688 52.976562 353.929688 50.796875 C 353.671875 46.503906 356.648438 42.765625 357.25 42.007812 C 360.3125 38.628906 363.679688 38.121094 365.8125 38.773438 C 368.683594 39.65625 367.269531 41.609375 365.988281 42.871094 C 363.035156 45.777344 358.457031 45.734375 358.457031 45.734375 C 356.59375 48.816406 356.136719 51.574219 358.261719 53.476562 C 362.492188 54.179688 367.75 52.828125 371.890625 49.042969 C 376.386719 44.875 375.851562 40.621094 375.128906 38.453125 C 374.003906 35.070312 371.035156 32.351562 367.1875 31.171875 C 366.515625 30.929688 365.277344 30.667969 363.707031 30.632812 Z M 394.527344 30.648438 C 385.726562 30.648438 380.003906 34.949219 379.941406 41.617188 C 379.890625 46.667969 382.46875 49.820312 387.816406 51.257812 L 393.644531 52.792969 C 396.046875 53.421875 398.203125 54.128906 398.1875 55.953125 C 398.160156 58.695312 395.175781 59.046875 392.585938 59.046875 C 388.390625 59.046875 384.28125 57.285156 381.929688 56.066406 L 380.378906 63.113281 C 382.285156 64.066406 386.78125 65.914062 392.898438 65.914062 C 401.207031 65.914062 406.199219 61.933594 406.261719 55.28125 C 406.3125 50.15625 403.921875 47.242188 398.515625 45.839844 L 392.105469 44.171875 C 389.628906 43.515625 388.128906 42.964844 388.148438 40.882812 C 388.164062 38.773438 390.207031 37.578125 393.746094 37.578125 C 396.921875 37.578125 400.9375 38.589844 404.128906 40.1875 L 406.324219 32.976562 C 403.777344 31.824219 398.722656 30.648438 394.527344 30.648438 Z M 424.292969 30.648438 C 415.492188 30.648438 409.769531 34.949219 409.707031 41.617188 C 409.65625 46.667969 412.234375 49.820312 417.582031 51.257812 L 423.410156 52.792969 C 425.8125 53.421875 427.96875 54.128906 427.953125 55.953125 C 427.925781 58.695312 424.941406 59.046875 422.351562 59.046875 C 418.15625 59.046875 414.046875 57.285156 411.695312 56.066406 L 410.144531 63.113281 C 412.050781 64.066406 416.546875 65.914062 422.664062 65.914062 C 430.972656 65.914062 435.964844 61.933594 436.027344 55.28125 C 436.074219 50.144531 433.6875 47.230469 428.277344 45.828125 L 421.867188 44.160156 C 419.386719 43.503906 417.886719 42.953125 417.90625 40.871094 C 417.925781 38.78125 419.972656 37.578125 423.511719 37.578125 C 426.6875 37.578125 430.703125 38.589844 433.894531 40.1875 L 436.089844 32.976562 C 433.542969 31.824219 428.488281 30.648438 424.292969 30.648438 Z M 340.210938 30.785156 C 333.792969 30.671875 328.953125 32.980469 327.453125 33.898438 C 324.230469 35.742188 324.007812 38.160156 323.992188 39.417969 L 324 64.824219 L 332.636719 64.824219 L 332.632812 40.535156 C 332.632812 40.535156 337.085938 37.433594 344.628906 38.253906 L 344.695312 31.507812 C 343.589844 31.023438 342.09375 30.816406 340.210938 30.785156 Z M 157.617188 31.441406 L 157.617188 64.910156 L 162.683594 64.910156 L 162.683594 50.269531 L 180.546875 50.269531 L 180.546875 64.910156 L 185.613281 64.910156 L 185.613281 31.441406 L 180.546875 31.441406 L 180.546875 45.828125 L 162.683594 45.828125 L 162.683594 31.441406 Z M 192.285156 31.441406 L 192.285156 64.910156 L 197.351562 64.910156 L 197.351562 50.515625 L 204.6875 50.507812 L 214.839844 64.949219 L 220.1875 64.949219 L 220.1875 64.152344 L 208.839844 48.410156 L 220.207031 32.21875 L 220.207031 31.441406 L 214.941406 31.441406 L 204.949219 46.074219 L 197.351562 46.074219 L 197.351562 31.441406 Z M 35.835938 37.914062 L 20.941406 54.875 C 28.921875 64.992188 43.457031 74.40625 48.550781 77.175781 C 48.476562 68.4375 50.496094 60.074219 53.132812 53.382812 C 47.367188 49.171875 39.230469 41.410156 35.835938 37.914062 Z M 363.742188 82.402344 L 363.742188 85.246094 L 360.441406 85.246094 L 360.441406 87.503906 L 363.742188 87.503906 L 363.742188 90.484375 L 359.777344 90.484375 L 359.777344 92.714844 L 363.410156 92.714844 C 361.746094 96.804688 359.011719 99.253906 359.011719 99.253906 L 361.894531 99.253906 L 361.902344 103.796875 C 361.902344 104.367188 362.183594 105.214844 362.679688 105.726562 C 363.160156 106.226562 363.671875 106.398438 364.359375 106.585938 C 366.03125 107.050781 368.039062 107.25 369.207031 107.257812 C 373.535156 107.28125 376.414062 105.765625 376.414062 105.765625 L 376.414062 102.789062 L 376.167969 102.933594 C 374.554688 103.859375 372.875 104.316406 371.355469 104.507812 C 368.214844 104.90625 365.773438 104.234375 365.664062 104.203125 C 364.699219 103.953125 364.761719 103.214844 364.761719 103.070312 L 364.761719 101.816406 C 368.824219 102.6875 372.117188 102.082031 374.019531 101.183594 C 374.882812 100.777344 375.007812 99.632812 375.050781 99.253906 L 378.308594 99.253906 C 378.308594 99.253906 375.382812 96.59375 373.945312 92.714844 L 377.816406 92.714844 L 377.816406 90.484375 L 373.378906 90.484375 L 373.378906 87.503906 L 377.152344 87.503906 L 377.152344 85.246094 L 373.378906 85.246094 L 373.378906 82.402344 L 370.628906 82.402344 L 370.628906 85.246094 L 366.519531 85.246094 L 366.519531 82.402344 Z M 353.273438 82.410156 L 353.371094 82.640625 C 354.359375 84.882812 355.441406 86.761719 356.667969 88.390625 L 356.71875 88.453125 L 360.332031 88.453125 L 360.089844 88.179688 C 358.207031 86.085938 356.976562 83.519531 356.535156 82.511719 L 356.492188 82.410156 Z M 345.402344 82.429688 L 345.222656 82.445312 C 340.15625 83.003906 333.582031 83.273438 325.132812 83.273438 L 324.96875 83.273438 L 324.96875 85.476562 C 324.96875 85.476562 331.71875 85.429688 333.757812 85.371094 L 333.757812 87.550781 L 323.617188 87.550781 L 323.617188 89.757812 L 327.957031 89.757812 C 326.984375 91.234375 325.464844 93.035156 324.125 94.273438 C 323.832031 94.542969 323.554688 94.78125 323.300781 94.984375 L 322.914062 95.285156 L 326.203125 95.285156 C 326.113281 95.347656 326.019531 95.402344 325.941406 95.476562 C 325.320312 95.972656 324.96875 96.660156 324.96875 97.371094 L 325.042969 103.492188 C 325.0625 103.902344 325.164062 104.285156 325.351562 104.628906 C 325.550781 104.988281 325.863281 105.285156 326.257812 105.476562 C 328.585938 106.628906 331.699219 107.269531 335.03125 107.269531 L 335.347656 107.269531 C 338.679688 107.269531 341.792969 106.628906 344.121094 105.476562 C 344.515625 105.285156 344.828125 104.988281 345.027344 104.628906 C 345.214844 104.285156 345.316406 103.910156 345.335938 103.492188 L 345.410156 97.28125 C 345.410156 96.617188 345.109375 95.972656 344.554688 95.445312 C 344.515625 95.414062 344.476562 95.398438 344.441406 95.367188 L 347.691406 95.367188 L 347.230469 95.0625 C 345.421875 93.847656 343.382812 91.242188 342.25 89.757812 L 346.753906 89.757812 L 346.753906 87.550781 L 336.589844 87.550781 L 336.589844 85.308594 C 338.449219 85.246094 342.300781 84.964844 345.253906 84.734375 L 345.402344 84.722656 Z M 386.433594 82.429688 L 386.433594 106.898438 L 389.152344 106.898438 L 389.152344 82.429688 Z M 411.902344 82.433594 C 412.496094 83.917969 413.527344 85.832031 414.617188 87.785156 L 417.9375 87.777344 C 416.722656 86.019531 415.792969 84.3125 414.984375 82.433594 Z M 397.203125 82.441406 L 397.203125 86.3125 C 395.503906 86.460938 394.019531 86.792969 392.851562 87.09375 C 392.9375 87.851562 393.058594 88.613281 393.199219 89.355469 C 394.671875 88.96875 395.953125 88.71875 397.214844 88.59375 C 397.222656 90.082031 397.199219 92.726562 397.085938 94.207031 L 390.8125 94.207031 L 390.8125 96.460938 L 396.898438 96.460938 C 396.277344 99.953125 393.980469 103.367188 390.074219 106.597656 L 389.722656 106.886719 L 393.957031 106.886719 L 394 106.84375 C 396.207031 104.851562 397.917969 102.269531 399.074219 99.175781 L 403.800781 106.886719 L 407.390625 106.886719 L 400.84375 96.46875 L 406.453125 96.46875 L 406.441406 89.199219 C 406.441406 89.1875 406.515625 87.808594 405.066406 87.152344 C 403.734375 86.734375 402.464844 86.460938 401.179688 86.332031 C 400.917969 86.304688 400.660156 86.289062 400.410156 86.269531 L 400.425781 82.441406 Z M 420.769531 83.25 C 420.113281 83.25 419.652344 83.523438 419.371094 83.753906 C 418.886719 84.175781 418.625 84.796875 418.625 85.503906 L 418.625 86.667969 L 421.457031 86.667969 L 421.457031 85.785156 C 421.457031 85.574219 421.632812 85.398438 421.847656 85.398438 L 431.984375 85.398438 C 432.203125 85.398438 432.316406 85.527344 432.316406 85.785156 L 432.316406 86.675781 L 435.148438 86.675781 L 435.148438 85.453125 C 435.148438 84.847656 434.964844 84.320312 434.613281 83.9375 C 434.195312 83.488281 433.605469 83.25 432.894531 83.25 Z M 425.488281 86.03125 L 425.488281 87.488281 L 419.425781 87.488281 L 419.425781 89.609375 L 425.488281 89.609375 L 425.488281 90.683594 L 422.261719 90.683594 C 421.589844 90.683594 421.035156 90.859375 420.644531 91.1875 C 420.175781 91.539062 419.921875 92.105469 419.921875 92.777344 L 419.921875 96.945312 C 419.921875 97.5 420.113281 98.003906 420.488281 98.410156 C 420.925781 98.847656 421.496094 99.09375 422.089844 99.09375 L 425.480469 99.09375 L 425.480469 100.027344 L 418.65625 100.027344 L 418.65625 102.175781 L 425.480469 102.175781 L 425.480469 104.539062 C 423.007812 104.292969 420.535156 103.605469 417.933594 102.355469 L 417.851562 92.257812 L 417.851562 91.109375 C 417.851562 90.265625 417.613281 89.613281 417.144531 89.175781 C 416.703125 88.738281 416.097656 88.519531 415.292969 88.519531 L 411.613281 88.519531 L 411.613281 88.679688 L 411.609375 88.679688 L 411.640625 90.910156 L 414.597656 90.910156 C 414.890625 90.910156 414.960938 91.148438 414.972656 91.226562 L 414.972656 102.59375 C 414.097656 104.335938 411.996094 106.886719 411.996094 106.886719 L 415.484375 106.886719 L 415.535156 106.8125 C 415.96875 106.160156 416.417969 105.40625 416.816406 104.738281 C 420.40625 106.453125 423.835938 107.25 427.289062 107.25 C 430.746094 107.25 433.617188 106.390625 435.976562 105.558594 L 436.082031 105.519531 L 436.082031 102.71875 C 436.089844 102.734375 431.566406 104.554688 428.207031 104.613281 L 428.207031 102.179688 L 435.195312 102.179688 L 435.195312 100.03125 L 428.207031 100.03125 L 428.207031 99.097656 L 431.542969 99.097656 C 432.128906 99.097656 432.941406 98.960938 433.460938 98.316406 C 433.78125 97.890625 433.9375 97.402344 433.9375 96.8125 L 433.9375 93.085938 C 433.9375 92.394531 433.722656 91.820312 433.3125 91.367188 C 432.875 90.929688 432.265625 90.683594 431.597656 90.683594 L 428.207031 90.683594 L 428.207031 89.609375 L 434.542969 89.609375 L 434.542969 87.488281 L 428.207031 87.488281 L 428.207031 86.03125 Z M 383.25 87.207031 C 383.261719 90.058594 383.019531 92.714844 382.5 95.175781 L 385.039062 95.175781 C 385.417969 92.765625 385.601562 90.097656 385.621094 87.207031 Z M 389.824219 87.207031 C 389.953125 89.527344 390.253906 91.605469 390.867188 93.246094 L 393.363281 93.246094 C 392.71875 91.363281 392.261719 89.371094 392.101562 87.207031 Z M 366.523438 87.507812 L 370.632812 87.507812 L 370.632812 90.492188 L 366.523438 90.492188 Z M 400.386719 88.542969 C 401.5 88.625 402.59375 88.8125 403.722656 89.125 L 403.722656 94.210938 L 400.386719 94.210938 Z M 353.390625 89.246094 C 354.265625 91.460938 355.171875 93.636719 356.375 95.410156 L 359.945312 95.410156 C 358.730469 94.023438 357.5625 91.792969 356.578125 89.246094 Z M 331.332031 89.757812 L 333.757812 89.757812 L 333.757812 94.78125 L 327.796875 94.78125 C 327.871094 94.707031 327.941406 94.636719 328.007812 94.554688 C 329.316406 93.054688 330.554688 91.136719 331.332031 89.757812 Z M 336.597656 89.757812 L 338.753906 89.757812 C 339.328125 90.648438 340.914062 92.984375 342.683594 94.78125 L 336.597656 94.78125 Z M 366.417969 92.722656 L 371.097656 92.722656 C 371.308594 93.304688 371.578125 94.039062 371.765625 94.519531 L 365.613281 94.519531 C 365.882812 93.988281 366.199219 93.265625 366.417969 92.722656 Z M 428.207031 92.722656 L 430.738281 92.722656 C 430.972656 92.722656 431.183594 92.945312 431.183594 93.191406 L 431.183594 93.800781 L 428.207031 93.800781 Z M 423.078125 92.726562 L 425.480469 92.726562 L 425.480469 93.804688 L 422.554688 93.804688 L 422.554688 93.195312 C 422.554688 92.914062 422.820312 92.726562 423.078125 92.726562 Z M 422.554688 95.816406 L 425.480469 95.816406 L 425.480469 96.949219 L 422.996094 96.949219 C 422.792969 96.949219 422.554688 96.75 422.554688 96.480469 Z M 428.207031 95.816406 L 431.183594 95.816406 L 431.183594 96.503906 C 431.183594 96.757812 430.996094 96.949219 430.738281 96.949219 L 428.207031 96.949219 Z M 356.449219 96.59375 L 352.589844 106.804688 L 356.023438 106.804688 L 359.738281 96.59375 Z M 365.066406 96.75 L 371.953125 96.75 C 372.066406 96.75 372.261719 96.90625 372.261719 97.027344 L 372.261719 99.269531 C 370.671875 99.777344 367.1875 100.050781 364.761719 99.253906 L 364.761719 97.113281 C 364.761719 96.96875 364.980469 96.75 365.066406 96.75 Z M 328.304688 97.070312 L 342.074219 97.070312 C 342.351562 97.070312 342.601562 97.28125 342.601562 97.515625 L 342.601562 99.261719 L 327.777344 99.261719 L 327.777344 97.570312 C 327.777344 97.339844 327.914062 97.070312 328.304688 97.070312 Z M 327.777344 101.519531 L 342.601562 101.519531 L 342.601562 102.46875 L 342.605469 102.46875 C 342.605469 102.53125 342.621094 103.277344 341.738281 103.648438 C 341.738281 103.648438 338.898438 104.667969 335.414062 104.648438 L 334.972656 104.648438 C 331.492188 104.675781 328.648438 103.648438 328.648438 103.648438 C 327.765625 103.277344 327.777344 102.5625 327.777344 102.46875 Z M 327.777344 101.519531 "/>
<path style=" stroke:none;fill-rule:nonzero;fill:rgb(12.941177%,72.549021%,85.490197%);fill-opacity:1;" d="M 158.121094 100.265625 L 170.988281 89.488281 L 156.929688 71.894531 L 144.0625 82.671875 Z M 158.121094 100.265625 "/>
</g>
</svg>
